<svg width="189" height="189" viewBox="0 0 189 189" fill="none" xmlns="http://www.w3.org/2000/svg">
<rect x="1.30823" y="1.25" width="186.5" height="186.5" rx="10.75" fill="#F5F2F8"/>
<path fill-rule="evenodd" clip-rule="evenodd" d="M95.0427 52.1169V52C94.2924 59.6073 82.8409 74.1202 78.9269 78.3331C70.2969 87.6241 61.0582 96.2003 61.0582 111.014C61.0582 121.157 68.3191 129.509 77.7064 130.845C85.2958 131.918 93.5041 127.358 93.5041 118.715C93.5112 116.858 93.028 115.031 92.1003 113.406C90.3715 110.372 87.2597 108.06 83.3353 107.967C77.0426 107.793 71.137 113.743 74.197 120.375C69.9442 119.797 67.4928 115.451 67.351 110.296C67.1608 103.48 71.5001 98.5289 78.8128 96.3573C89.8598 93.0765 94.1817 86.8958 95.0634 72.7638C95.9347 86.8958 100.25 93.0765 111.314 96.3573C118.613 98.5289 122.966 103.48 122.776 110.296C122.634 115.451 120.183 119.797 115.926 120.375C118.979 113.743 113.074 107.793 106.781 107.964C102.867 108.067 99.7588 110.369 98.0162 113.403C97.0874 115.028 96.603 116.855 96.6089 118.711C96.6089 127.354 104.821 131.915 112.41 130.842C121.811 129.506 129.058 121.154 129.058 111.014C129.058 96.2003 119.82 87.6275 111.19 78.3331C107.276 74.1202 95.8206 59.624 95.0772 52L95.0427 52.1169Z" fill="#EBE5F1"/>
<rect x="1.30823" y="1.25" width="186.5" height="186.5" rx="10.75" stroke="#E6E1EB" stroke-width="1.5"/>
</svg>
